<?xml version="1.0" encoding="UTF-8"?>
<!DOCTYPE svg PUBLIC "-//W3C//DTD SVG 1.1//EN" "http://www.w3.org/Graphics/SVG/1.1/DTD/svg11.dtd">
<!-- Creator: CorelDRAW 2018 (64 Bit) -->
<svg xmlns="http://www.w3.org/2000/svg" xml:space="preserve" width="380px" height="242px" version="1.1" shape-rendering="geometricPrecision" text-rendering="geometricPrecision" image-rendering="optimizeQuality" fill-rule="evenodd" clip-rule="evenodd"
viewBox="0 0 380 242"
 xmlns:xlink="http://www.w3.org/1999/xlink">
 <g id="Capa_x0020_1">
  <metadata id="CorelCorpID_0Corel-Layer"/>
  <polygon fill="#E6E7E8" points="0,0.2 380,0.2 380,241.8 0,241.8 "/>
  <path fill="#A9ABAE" fill-rule="nonzero" d="M104.08 56.28l2.93 0 -3.46 7.57c-1.35,2.93 -3.12,3.99 -5.17,3.99 -2.06,0 -2.86,-1.06 -1.52,-3.99l10.16 -22.18c1.34,-2.93 3.14,-4.04 5.19,-4.04 2.06,0 2.84,1.11 1.49,4.04l-2.01 4.4 6.1 0 1.83 -3.98c3,-6.58 1.44,-10.33 -4.9,-10.33 -6.33,0 -11.34,3.75 -14.35,10.33l-9.78 21.35c-3,6.57 -1.44,10.32 4.9,10.32 6.33,0 11.34,-3.75 14.35,-10.32l5.96 -13.02 -9.03 0 -2.69 5.86zm9.78 17.01l6.46 0 18.8 -41.06 -6.45 0 -18.81 41.06zm29.77 -35.19l6.75 0 -16.12 35.19 6.45 0 16.12 -35.19 6.75 0 2.68 -5.87 -19.94 0 -2.69 5.87zm34.64 -5.87l-6.51 0 -12.48 41.06 9.62 0 25.15 -41.06 -5.93 0 -20.27 33.5 10.42 -33.5zm4.34 41.06l6.45 0 18.81 -41.06 -6.45 0 -18.81 41.06zm15.52 0l17.07 0 2.69 -5.86 -10.62 0 16.12 -35.2 -6.45 0 -18.81 41.06zm24.27 0l17.07 0 2.68 -5.86 -10.61 0 16.12 -35.2 -6.46 0 -18.8 41.06zm57.38 -41.06l-9.44 0 -25.38 41.06 5.92 0 4.53 -7.45 7.92 0 -2.3 7.45 6.51 0 12.24 -41.06zm-8.37 7.27l-6.41 20.77 -6.22 0 12.63 -20.77zm17.29 33.79l6.63 0 18.81 -41.06 -5.75 0 -11.26 24.58 4.63 -24.58 -8.1 0 -18.81 41.06 5.81 0 13.62 -29.74 -5.58 29.74zm35.26 -15.31l-2.68 5.87c-1.35,2.93 -3.12,3.99 -5.17,3.99 -2.06,0 -2.86,-1.06 -1.52,-3.99l10.16 -22.18c1.34,-2.93 3.14,-4.04 5.19,-4.04 2.06,0 2.84,1.11 1.49,4.04l-2.01 4.4 6.1 0 1.83 -3.98c3.01,-6.58 1.44,-10.33 -4.89,-10.33 -6.34,0 -11.35,3.75 -14.35,10.33l-9.78 21.35c-3.01,6.57 -1.45,10.32 4.89,10.32 6.33,0 11.34,-3.75 14.35,-10.32l2.5 -5.46 -6.11 0zm29.98 -19.88l11.14 0 2.69 -5.87 -17.6 0 -18.81 41.06 17.6 0 2.69 -5.86 -11.15 0 5.51 -12.03 8.86 0 2.68 -5.86 -8.85 0 5.24 -11.44z"/>
  <path fill="#2166A7" fill-rule="nonzero" d="M102.32 52.92l2.94 0 -3.47 7.57c-1.34,2.93 -3.12,3.99 -5.17,3.99 -2.05,0 -2.86,-1.06 -1.52,-3.99l10.16 -22.17c1.34,-2.94 3.14,-4.05 5.2,-4.05 2.05,0 2.83,1.11 1.49,4.05l-2.02 4.4 6.1 0 1.83 -3.99c3.01,-6.57 1.44,-10.33 -4.89,-10.33 -6.34,0 -11.34,3.76 -14.35,10.33l-9.78 21.35c-3.01,6.57 -1.45,10.33 4.89,10.33 6.34,0 11.34,-3.76 14.35,-10.33l5.97 -13.02 -9.04 0 -2.69 5.86zm9.79 17.02l6.45 0 18.81 -41.07 -6.45 0 -18.81 41.07zm29.77 -35.2l6.74 0 -16.12 35.2 6.45 0 16.12 -35.2 6.75 0 2.69 -5.87 -19.95 0 -2.68 5.87zm34.63 -5.87l-6.51 0 -12.47 41.07 9.62 0 25.14 -41.07 -5.92 0 -20.27 33.5 10.41 -33.5zm4.34 41.07l6.46 0 18.8 -41.07 -6.45 0 -18.81 41.07zm15.53 0l17.07 0 2.68 -5.87 -10.61 0 16.12 -35.2 -6.46 0 -18.8 41.07zm24.26 0l17.07 0 2.69 -5.87 -10.62 0 16.12 -35.2 -6.45 0 -18.81 41.07zm57.39 -41.07l-9.45 0 -25.38 41.07 5.93 0 4.52 -7.45 7.93 0 -2.3 7.45 6.51 0 12.24 -41.07zm-8.38 7.28l-6.4 20.76 -6.22 0 12.62 -20.76zm17.29 33.79l6.63 0 18.81 -41.07 -5.75 0 -11.26 24.58 4.63 -24.58 -8.09 0 -18.81 41.07 5.81 0 13.62 -29.75 -5.59 29.75zm35.27 -15.31l-2.69 5.86c-1.34,2.93 -3.12,3.99 -5.17,3.99 -2.05,0 -2.86,-1.06 -1.51,-3.99l10.15 -22.17c1.34,-2.94 3.15,-4.05 5.2,-4.05 2.05,0 2.83,1.11 1.49,4.05l-2.02 4.4 6.1 0 1.83 -3.99c3.01,-6.57 1.45,-10.33 -4.89,-10.33 -6.34,0 -11.34,3.76 -14.35,10.33l-9.78 21.35c-3.01,6.57 -1.44,10.33 4.89,10.33 6.34,0 11.34,-3.76 14.35,-10.33l2.5 -5.45 -6.1 0zm29.97 -19.89l11.15 0 2.68 -5.87 -17.6 0 -18.8 41.07 17.59 0 2.69 -5.87 -11.14 0 5.5 -12.03 8.86 0 2.69 -5.86 -8.86 0 5.24 -11.44z"/>
  <path fill="#2166A7" d="M18.07 38.41c-3.41,0.96 -5.69,3.97 -5.83,7.27l8.94 0.49c-0.25,5.15 3.72,17.69 9.72,16 0.06,-0.02 0.13,-0.04 0.19,-0.06l10.32 -3.31 0.96 0.52c-0.11,0.12 -0.17,0.27 -0.17,0.44l0 6.97c0,0.39 0.3,0.66 0.73,0.66l0 1.76c0,0.45 0.37,0.83 0.83,0.83l7.53 0c0.66,0 1.87,-1.81 2.31,-2.34l12.04 -0.91c1.46,2.39 3.64,3.91 6.07,3.91 1.08,0 2.12,0 3.21,0 4.39,0 7.95,-4.94 7.95,-11.04 0,-6.09 -3.56,-11.04 -7.95,-11.04 -1.09,0 -2.13,0 -3.21,0 -2.99,0 -5.6,2.29 -6.95,5.68l-8.69 2.74 0.79 -6.88c3.38,-1.12 10.5,-2.55 12.17,-5.29 1.5,-2.44 1.88,-6.32 0.75,-10.32 -1.68,-5.97 -8.26,-9.51 -14.59,-7.56l-37.12 11.48zm43.64 -10.04l-38.55 11.94c-0.95,-0.59 -1.94,-1.01 -2.94,-1.26l37.65 -11.63c1.35,0.11 2.65,0.43 3.84,0.95zm4.91 38.29c1.52,-0.12 3.76,-0.12 5.19,-0.48 2.89,-0.74 5.03,-3.4 5.03,-6.58 0,-3.74 -2.84,-7.05 -6.64,-6.77 -1.61,0.12 -2.89,0.61 -4.4,1.08 1.3,-2.59 3.46,-4.29 5.91,-4.29 3.97,0 7.19,4.47 7.19,9.98 0,5.52 -3.22,9.99 -7.19,9.99 -1.99,0 -3.79,-1.12 -5.09,-2.93zm-33.32 -6.69c0.88,-1.75 1.21,-4.33 0.87,-7.23l12.2 0.7c-0.21,1.66 -0.83,2.61 -2.02,3.14l-11.05 3.39 0 0zm-6.59 -14.82c-3.53,1 -0.57,11.48 2.95,10.49 1.4,-0.39 1.96,-2.79 1.35,-5.47 0.64,1.07 1.22,1.94 1.71,2.32 0.16,2.92 -0.71,5.23 -2.34,5.69 -4.91,1.38 -9.4,-12.69 -4.91,-15.34 0.89,0.49 1.75,1.41 2.54,2.5 -0.44,-0.23 -0.89,-0.31 -1.3,-0.19zm-4.57 1.07l0.64 0.04c-0.27,4.3 3.02,14.82 8.02,13.41 1.03,-0.29 1.8,-1.2 2.27,-2.5 -0.44,1.8 -1.34,3.07 -2.62,3.43 -5.29,1.5 -8.76,-9.78 -8.31,-14.38z"/>
  <path fill="black" d="M24.56 206.25c-0.7,-5.78 -1.34,-11.83 -2.13,-17.36l1.26 -37.2c3.66,-1.08 0.2,-6.69 2.95,-7.41 1.74,-0.46 -2.83,-4.92 -0.18,-4.83 1.3,0.04 1.28,-4.11 4,-5.61 3.41,-1.89 4.96,0.33 3.34,-2.55 0.62,-0.36 1.18,-0.57 1.69,-0.65 0.94,-1.03 -0.73,-1.78 -0.24,-2.29 1.25,-1.29 0.12,-1.88 2.35,-3.06 1.47,-0.76 -0.74,-1.03 2.62,-4.25 2.84,-2.72 4.57,-7.38 10.44,-7.94 2.43,-0.23 2.87,-1.83 0.63,-2.31 -1.87,-0.4 -0.19,-0.73 -0.15,-0.56 0.15,0.57 2.29,-0.43 2.99,-0.34 3.5,0.43 -1.39,-1.15 4.22,-1.02 0.65,0.01 3.43,0.04 3.83,-0.47 -0.42,-0.92 -2.19,-2.11 0.12,-1.6 2.17,0.44 4.3,-0.2 5.84,0.25 3.69,1.08 -3.96,2.51 1.03,2.28 2.21,-0.1 1.49,1.85 1.86,-1.24 0.35,-2.91 3.15,-1.57 3.65,-3.25 0.1,-0.32 1.39,1.45 0.83,-0.53 -0.09,-0.32 0.13,-0.53 0.31,-0.82 2.13,3.04 -1.69,4.99 6.46,2.73 4.53,4.64 1.25,-4.99 12.74,3.47 1.84,1.35 4.19,1.72 6.41,1.71 5.33,-0.03 0.03,-0.18 2.32,1.26 4.55,2.87 0.17,-4.53 2.91,-4.93l5.08 2.39c-0.58,1.83 -0.82,0.77 0.56,1.66 0.69,0.44 1.74,2.63 3.04,3.76 1.47,1.28 0.15,3.96 5.32,3.91 6.08,-0.06 9.05,8.47 8.33,4.14 1.15,-0.52 1.13,0.21 0.99,-0.81 -0.25,-1.86 3.41,1.38 4.39,-0.71 0.85,-1.83 -3.25,-1.44 0.18,-2.55l3.25 -2.99c-1.46,-3.51 0.02,-1.11 2.02,-4.1 -0.52,-0.49 -0.77,-0.4 -1.5,-0.49 2.46,-3.58 1.31,-2.13 0.7,-2.97 -1.09,-1.49 0.7,-0.07 1.34,-2.34 0.76,-2.66 2.96,-2.44 3.49,-3.05 0.05,-0.06 -0.53,-1.23 2.03,-2.44 4.01,-1.9 0.65,-3.19 4.09,-3.2 -0.25,-2.3 -0.48,-1.38 2.15,-0.9 -0.37,-1.47 -0.57,-1.07 -1.6,-1.9l8.83 -0.65c0.89,-3.73 -0.15,-1.3 2.31,-4.02 3.55,-3.94 5.09,0.89 5.43,-2.98l5.5 -0.85c2.15,0.77 2.44,-1.91 3.24,-1.03 0.32,0.35 1.53,0.49 1.66,0.39l3.27 0.91c1.18,-1 0.84,-0.82 2.27,-0.71 0.27,-0.81 0.42,-0.98 0.54,-1.88 1.71,-0.04 0.72,0.1 2.07,-0.41 2.27,3.23 5.72,1.74 5.75,1.75 0.18,0.05 0.04,0.3 1.21,0.54 0.67,-0.77 0.86,-1.02 1.35,-1.92 4.53,0.27 5.72,2.58 7.6,2.86 1.12,0.17 1.36,-1.29 1.12,0.51 -0.08,0.6 2.84,1.31 1.33,-0.75 -0.61,-0.83 -0.08,1.46 3.59,1.81l3 5.05c0.36,-2.6 -2.36,-5.27 -1.69,-8.22 2.71,2.77 0.21,5.03 3.69,6.07 2.4,-2.57 0.99,-3.64 2.74,-6l-0.23 4.61c2.5,-1.32 0.27,-3.43 3.22,-2.55 0.87,-2.58 1.1,-0.92 1.42,-1.35 -0.36,-0.26 0.33,1.36 0.14,2.08 -0.33,1.23 1.55,0.15 0.77,1.42 -1.28,2.1 0.9,1.26 0.61,0.43 -0.32,-0.91 0.55,-2.74 0.71,0.28 1.12,-0.37 0.81,-0.14 1.21,-1.15 0.19,0.82 0.16,0.95 0.83,1.56 1.01,-1.37 0.65,-1.54 1.71,-0.71l-2.34 7.13c0.78,0.04 1.52,0.05 2.29,0.06 1.05,-2.68 1.01,-2.21 0.65,-5.25 0.55,0.77 0.43,1.06 0.59,1.99 2.02,-1.62 0.92,0.64 0.75,1.35 3.02,0.12 1.16,-2.78 2.86,-1.58 0.67,0.46 0.24,0.36 1.66,-0.09 0.28,1.15 0.65,1.27 1.17,2.3 3.9,-0.48 0.96,-0.25 -0.38,2.38 0.54,0.33 0.47,0.1 1.43,-0.36 0.56,2.7 0.47,0.7 -1.42,2.07 2.73,1.75 2.38,-1.01 6.94,1.69 1.49,0.88 2.73,0.84 4.4,1.1 -3.9,1.31 -0.98,0.25 -0.47,1.5 0.48,1.15 2.05,1.12 3.07,2.97 0.82,1.49 3.9,1.66 3.42,2.68 -1.59,3.42 3.45,1.64 0.26,3.73l6.18 6.58 -1.85 0.67c0.89,2.85 0.42,1.34 2.29,3.34 0.68,0.72 0.07,1.88 1.36,2.06 0.26,0.04 1.16,0.73 0.99,1.07 -0.41,0.81 1.67,0.62 -0.45,1.28 -2,0.64 4.32,3.79 4.74,5.96 -1.29,-0.26 -2.04,-0.84 -1.19,0.93 1.63,3.44 -2.04,5.96 2.67,3.58 0.47,-0.24 1.69,-2.43 2.2,-3.04 2.89,-3.5 6.09,-3.7 8.06,-8.2 1.18,-2.72 1.42,-1.11 3.68,-3.09 0.55,-0.49 2.17,-2.76 2.87,-2.2 0.35,0.27 0.43,-1.44 1.9,-1.84l7.39 -3.02c4.1,-2.32 10.37,-0.89 14.36,-2.57 2.1,-0.89 9.41,1.54 11.75,1.25 1.1,-0.14 2.06,-0.11 3.17,-0.09 0.31,0.5 0.63,1 0.94,1.5 1.13,-0.24 1.46,-0.22 0.77,-0.86 0.08,-0.2 1.08,-0.05 1.59,0.75 0.97,1.54 1.09,0.1 2.47,-0.54 0.56,1.44 0.94,3.42 2.52,3.68 1.9,0.32 4.79,3.54 8.92,4.3 3.64,0.67 13.37,8.79 16.32,13.43 10.32,16.22 12.33,43 8.16,64.98 -2.98,0.01 -5.58,0.03 -7.61,0.04 -2.1,-2.27 0.43,-3.66 -1.2,-4.95 -0.91,-0.71 0.1,-2.35 -1.09,-4.53 -1.4,-2.55 1.74,-2.75 -2.8,-3.46 -0.33,2.06 -0.23,1.76 1.33,2.49 -0.12,1.3 -0.42,1.89 -0.58,3.02 1.14,0.51 0.81,0 1.61,0.96 -4.35,0.17 -1.54,-0.25 -4.55,2.07 -3.35,2.61 -4.78,1.31 -6.7,2.84 -2.81,2.16 -3.05,1.74 -6.12,1.72 0.17,-2.36 1.33,-3.15 -0.83,-3.44 -1.06,-0.15 -8.37,6.17 -9.09,-3.89 -3.5,0.46 -9.31,6.94 -8.01,4.12 0.94,-2.04 5.29,-5.23 7.57,-5.34 2.68,-0.13 7.77,0.52 10.01,-0.05 -0.67,-1.48 -2.53,-2.1 -4.02,-2.47 -5.7,-1.31 -12.15,4.52 -16.46,6.91 -1.98,1.1 -1.5,2.15 -2.58,4.12 -2.12,0.01 0.67,-11.12 1.12,-11.94 1,-1.84 14.04,-4.51 14.04,-4.51 1.84,0.08 6.35,1.98 7.45,3.47 -1.62,-0.1 -2.74,-0.43 -4.01,0.72l8.69 2.09c0,0 -2.14,-1.48 -0.51,-1.59 0.17,-0.01 0.24,-1.02 0.25,-1.11 -2.09,-1.64 -2.91,-0.39 -3.69,-1.66 -0.3,-0.5 -0.61,-3.85 1.01,-2.98 3.09,1.64 1.62,0.76 4.13,0.62 2.12,4.14 -0.11,0 2.98,0.76 3.18,0.78 0.78,-1.91 2,-3.22 1.32,-1.43 0.87,-0.34 1.7,-2.61 0.81,-2.2 1.1,-0.45 1.97,-2.48 0.95,-2.2 2.51,-0.17 2.66,-0.17 -0.16,-2.27 -0.89,-1.27 -2.02,-3.2 0.2,-0.17 2.61,-2.31 2.59,-1.83 0.59,0.38 0.9,-6.23 -0.41,-10.77 0.38,-0.02 1.88,1.79 0.56,-1.56 -0.92,0.67 -0.03,1.14 -0.85,0.66 -1.67,-0.99 1.5,-1.32 -2.43,-3.68 -3.47,-2.08 -2.43,-2.03 -6.8,-2.53 -9.71,-1.12 -8.48,-8.72 -30.41,-6.56 -3.81,0.38 -13.28,-3.24 -15.12,-3.76 -1.84,-0.53 -1.13,-1 -3.26,-0.88 -2.95,0.17 -2.44,-5.08 -2.98,0.04 -0.2,1.91 -6.77,0.55 -8.85,3.76 -1.71,2.62 -2.67,1.82 -4.61,4.06 -3.28,4.06 -2.39,6.67 -3.94,10.78 -1,2.62 -3.71,8.1 -2.54,12.81 0.61,2.48 -1.54,0.89 -1.33,3.43l-1 9.31c-0.21,0.44 10.08,-3.58 11.01,1.58 -2.56,2.19 -1.49,1.06 -3.36,1.27 -3.52,0.64 -4.82,4.59 -1.46,3.61 1.47,-0.51 1.27,-0.77 3.13,-1.08 8.35,-1.38 2.9,-1.02 1.73,1.27 4.86,-0.72 8.02,-1.38 12.15,1.95l-3.19 -0.74c-2.5,10.45 -5.88,5.12 -10.05,2.88l-1 4.56 -2.42 0.04c-1.31,-1.7 -4.62,-1.57 -7.69,-1.98 -0.48,0.63 -1.14,1.35 -1.5,2.12 -2.82,0.06 -5.71,0.15 -8.74,0.28 1.93,-3.39 3.23,-6.54 1.58,-10.37 -1.54,0.95 -0.06,0.69 -1.94,1.34 1.35,1.84 1.4,0.95 -1.13,3.04 -0.55,0.46 1.16,3.29 -2.86,3.35 -0.01,-0.26 0.14,-2.53 -0.57,-1.6 -0.91,1.2 1.67,3.99 -0.07,4.5l-12.4 0.31c3.39,-2.76 -1.29,-0.52 1.4,-2.85 -1.14,-1.05 0.12,-4.04 -1.83,-1.74 -1.4,-2.97 -0.7,-2.97 -3.4,-0.91 -2.84,2.16 -1.2,-1.43 -4.92,1.81 -1.72,1.5 -2.13,0.25 -5.33,3.15l-3.03 -0.17c-0.28,-1.79 -0.24,-3.75 -2.35,-4.54 -0.96,1.77 -0.72,3.14 -3.6,3.16 -7.57,0.07 -2.39,-5.56 -7.88,-3.25 -5.54,2.34 -1.46,2.13 -4.49,2.99 0.48,-1.3 1.08,-1.76 1.28,-3.13 -6.88,0.82 -5.07,1.15 -5.9,-1.32 -0.69,-2.05 0.34,-0.24 1.44,-1.63 0.35,-0.45 -0.74,-1.67 1.81,-2.47 2.03,-0.65 0.31,-1.37 2.07,-1.62 4.93,-0.69 11.22,-4.69 17.53,-0.17 2.82,2.03 -7.53,1.23 -8.8,2.02 -1.4,0.86 -0.85,1.53 -3.34,2.69 -1.95,0.91 -1.47,-0.79 -3.98,2.3 2.74,-0.23 1.19,-1.63 3.55,-1.13 0.08,-1.31 -0.11,-1.13 1.66,-0.99 6.37,0.48 5.29,-3.03 6.18,-0.41 6.69,-1.6 7.77,0.04 8.62,-0.96 -0.19,-0.29 -0.62,0.07 -1.18,-1.41 3.33,0.17 2.63,-1.43 1.63,-1.16 -2.07,0.57 -3.59,0.46 -3.94,-1.63 2.37,-0.19 7.03,-3.09 9.04,-1.17 1.36,1.3 -0.08,1.03 1.35,0.62 1.04,-0.3 0.88,0.46 2.75,-0.91 1.13,-0.83 0.56,-0.85 2.02,0.34 -0.77,-1.09 -0.66,-1.42 -1.2,-0.99l0.58 -4.57c1.83,-2.09 0.18,-1.97 0.37,-4.55 0.06,-0.8 1.54,-1.54 -0.33,-1.48 -1.47,0.05 -2.09,-3.79 0.79,-4.75 -0.83,-3.67 4.93,-10.29 1.81,-14.45 -1.22,-1.62 -0.03,-2.09 -1.19,-3.83 -0.48,1.42 -1.6,-3.2 -4.01,-3.75 -0.69,-0.16 -0.47,-0.3 -0.69,-1.27 -0.42,-1.89 -2.66,0.13 -5.47,-3.31 -2.43,2.82 -3.84,-2.27 -8.87,-1.28 -1.15,-2.12 -1.09,-2.19 -3.83,-1.05 -1.02,-1.78 -1.23,-1.46 -2.51,-0.96 -2.65,1.01 -1.17,2 -2.82,0.05 -2.06,1.14 -3.57,0.73 -4.67,2.84 -1.13,-1.79 2.01,-2.04 -2.68,-1.25 -0.12,-1.66 0.31,-1.62 -0.38,-3.22 -0.39,1.4 -0.9,2.66 -1.24,4.09 -0.89,-1.97 -1.7,-0.21 -2.13,0.95 -2.34,-0.96 -0.3,-0.22 -2.41,0.88 -2.11,-1.33 -0.51,-3.9 -1.96,-0.67 -0.55,1.24 -0.44,0.47 -0.77,-0.71 -0.77,-2.76 -0.42,1.06 -2.45,-2.64 -1.09,0.47 -0.6,0.27 -1.28,1.22 -3.57,-3.05 -2.81,1.79 -6.73,-4.62 -2.63,3.03 -4.34,-0.54 -6.56,-0.57 -0.04,0.08 0.49,0.28 -0.71,-0.01 -2.96,-0.71 -1.69,-0.72 -3.87,1.28 -0.64,-0.45 -1.15,-1.09 -1.98,-0.84 0.31,-0.39 1.55,-0.53 -0.32,0.46l-6.86 3.29c-2.11,2.19 -2.23,-0.57 -3.56,1.72 -1.07,1.86 -1.28,-1.93 -5.16,2.29 -5.11,5.56 -4.65,9.54 -4.86,17.78 -0.1,4.29 0.16,10.57 -1.26,14.52 -3.34,9.32 -1.67,14.36 -0.75,23.27l-4.65 0.05c-0.7,-1.95 -3.63,-2.87 -3.87,-3.51 0,0 0.88,-7.46 -0.67,-9.32 -0.56,-0.68 -3.86,-3.42 -4.76,-4.2l2.13 17.04c-3.6,-0.01 -7.78,-0.01 -11.95,-0.01 -0.28,-0.57 -0.66,-1.19 -1.17,-1.9 -1.86,0.05 -2.58,-0.16 -4.32,-0.27 -2.3,-0.14 -1.23,1.3 -4.77,1.51 -6.44,0.39 -1.59,-0.41 -1.24,-1.85l-2.93 -3.76c-1.04,3.21 -2.1,4.12 -5.68,3.43 -2.98,-0.57 -2.18,-1.79 -3.24,-4.44l-5.56 2.63c0.32,-2.36 3.5,-2.19 4.3,-4.06 1.48,-3.48 -5.99,-1.38 -8.43,1.2 -1.3,1.36 -3.17,1.2 -4.95,1.4 -0.83,-2.36 0.08,-6.52 2.13,-8.07 1.99,-1.52 2.83,-0.89 3.43,-3.94 6.71,-1.16 7.46,-1.83 14.09,0.51 2.06,0.73 2.42,0.72 4.14,-0.56 17.07,6.38 5.08,-0.42 9.35,-10.63 3.96,-9.48 0.17,-8.84 -1.09,-13.87 -0.61,-2.45 -0.89,-3.64 -3.67,-3.71 -3.86,10.61 -11.48,0.92 -11.19,-3.91 0.19,-3.27 -1.29,-1.75 -4.01,-4.35 -1.68,0.55 -2.49,0.72 -2.37,4.7 -1.21,-0.62 -1.63,-3.23 -3.52,-2.46l-4.24 4.97c-2.94,5.33 -4.01,4.05 -8.37,1.74 -4.75,-2.82 -0.27,-4.34 -9.29,-4.97 -0.67,-1.5 0.39,-1.67 -2.52,-1.32 -1.68,0.21 -1.56,-0.74 -2.48,-0.95 -4.14,-0.96 -6.16,0.94 -10.66,-0.01 -1.95,-0.41 -2.79,0.61 -4.21,1.91 -1.72,1.65 -0.37,0.47 -1.12,2.52 -2.49,1.3 -2.76,0.7 -4.42,3.14 -1.35,-0.88 0.44,-0.8 -0.82,-0.78 -4.26,0.11 -5.46,9.77 -8.93,12.73 -1.94,1.65 -0.02,2.5 1.3,4.68l0.13 -1.41c3,3.2 0.94,6.21 0.82,9.57l-0.96 -0.39c-1.16,1.61 -2.82,0.64 -3.06,5.05 -0.4,7.18 -1.66,11.9 -1.56,16.87 -2.15,0.01 -4.85,0.04 -7.88,0.1zm190.49 -10.06c0.89,-0.53 0.47,0.04 0.64,0.68 -0.11,0.13 -0.66,-0.24 -0.83,-0.43l0.19 -0.25zm-7.09 -93.07c-1.62,1.81 -0.5,4.59 -0.25,6.72 1.16,-4.08 -0.19,-3.21 1.55,-4.1 -0.14,-1.5 -0.06,-3.12 -1.3,-2.62zm-31.51 86.99c0.96,0.77 8.3,4.03 5.92,7.86 -1.29,2.09 -4.32,-2.55 -2.83,2.03 -3.38,1.74 -0.06,-0.66 -5.04,-3.1 -2.16,1.93 -1.11,4.22 -5.59,3.85 -4.77,-0.39 -2.81,-5.37 -5.31,-3.96 -0.88,0.49 -1.92,2.55 -1.18,3.43 0.88,1.05 1.18,0.92 -0.2,1.89 -1.47,1.04 -2.77,-1.16 -4.24,-2.18 -1.9,-1.33 -10.53,-4.55 -9.21,-10.45 0.2,-0.9 4.4,-0.87 5.56,-3.35l7.28 1.63c3.88,0.25 6.87,-0.62 11.38,0.01 2.87,0.4 1.8,0.95 3.46,2.34zm-107.39 7.59c-1.8,-2.28 -0.08,-1.89 -4.17,-3.04 -2.46,-0.68 -4.08,-1.96 -6.64,-1.44 -0.01,0.77 -0.01,1.54 0,2.31 1.48,-0.23 0.81,-0.39 1.97,-0.63 1.55,3.82 4.39,3.05 5.98,5.98 -2.77,-0.81 -3.3,-2.14 -5.25,-2.58 -1.14,2.77 -0.99,4.57 -4.74,4.58 -3.79,0 -3.05,-2.97 -3.91,-5.17 -3.24,1.17 -1.31,4.07 -3.11,4.31 -2.85,0.38 -0.04,1.1 0.17,3.11 -2.03,-0.3 -0.44,0.88 -4.33,-0.31 -2.06,-0.64 -3.55,-2.91 -5.2,-4.45 -2.19,-2.02 0.13,-0.63 -1.18,-3.36 -0.58,-1.21 -1.31,-1.53 0.48,-2.12 -1,-0.86 -1.37,-0.47 -0.68,-2.48 0.45,-1.32 1.53,-3.86 3.17,-3.85 1.82,0 2.83,-2.72 4.19,-2.04l3.56 0.03c1.07,2.06 0.67,1.94 1.55,0.3 0.61,0.49 0.91,0.77 1.62,1.16 0.62,-2.59 -0.69,0.01 2.59,-2.13 0.1,-0.07 6.63,-0.64 9.11,0.72 0.58,0.32 -0.72,0.41 1.61,1.99 3.81,2.57 8.36,3.23 8.03,9.41 -0.11,1.93 0.19,1.92 -1.79,1.32 -1.37,-0.41 -1.97,-0.66 -3.03,-1.62zm222.1 -1.29c-6.71,-3.21 -7.4,-0.75 -7.73,-3.62 -1.07,-0.34 -1.35,-0.67 -2.01,-1.53 1.28,-1.08 1.75,0.12 0.82,-1.87 1.82,-0.29 0.62,0.72 3.17,0.39 5.53,-0.72 5.94,1.89 9.32,2.24 1.09,0.12 0.66,2.54 1.65,2.41 0.31,-0.03 5.1,4.75 -2.18,3.01 -0.94,-0.22 -2.15,-0.64 -3.04,-1.03zm-67.65 -78.93c-0.67,0.06 -0.57,-0.06 -0.68,0.84 0.21,-0.21 0.68,-0.62 0.83,-0.85l-0.15 0.01zm-182.08 10.94c-0.73,-1.23 -1.32,0.42 0.01,0.08l-0.01 -0.08zm40.72 -20.62c0.83,-0.03 0.26,-0.8 -0.42,-0.4l0.42 0.4zm159.4 -1.63c0.09,0.48 -0.5,0.25 0.79,0.36 -0.13,-0.52 0.08,-0.69 -0.83,-0.51l0.04 0.15zm-4.42 -4.55c-0.11,-0.56 1.09,-0.15 -0.69,-0.09l0.78 0.24 -0.09 -0.15zm-189.99 54.6c-0.89,0.18 -0.18,0.03 -0.47,0.59l0.77 -0.6 -0.3 0.01zm161.08 -44.08c0.25,-0.11 -0.04,-1.66 -0.41,-0.52l0.41 0.52zm-141.31 -2.24c0.24,-0.15 -0.15,-1.52 -0.67,-0.11l0.67 0.11zm-25.19 24.63c-0.27,-1.61 -1.65,0.11 -0.02,0.11l0.02 -0.11zm194.81 -38.85c0.19,-0.2 0.09,-0.19 0.13,-0.55 -1.54,0.48 -1,1.49 -0.13,0.55zm-97.79 21.81c-0.99,-0.53 -0.44,0.01 -0.58,0.41 0.41,0.16 1.43,0.25 0.58,-0.41zm144.51 7c-0.61,0.21 -0.51,0.15 -0.63,0.88 0.78,-0.1 1.11,0.02 0.8,-0.9l-0.17 0.02zm-194.45 -17.34c-0.62,-0.39 -0.39,-0.34 -0.93,0.19 1.31,1.08 1.42,0.11 0.93,-0.19zm139.94 -19.59c-1.58,-0.53 -1.26,-0.68 -0.19,1.23 0.13,-0.33 0.4,-0.78 0.4,-1.12l-0.21 -0.11zm34.47 55.06c-1.03,-0.71 -1.18,1.63 0.18,0.77 0.38,-0.23 0.06,-0.57 -0.18,-0.77zm-194.84 -30.32c-0.75,-0.23 -0.53,0.05 -0.82,0.52 0.49,0.21 0.98,0.41 1.48,0.62 -0.04,-0.68 -0.07,-0.86 -0.66,-1.14zm195.55 28.62l0.46 1.2c1.25,-1.74 -0.41,-1.25 -0.46,-1.2zm-39.17 -24.73c-1.41,1.81 0.54,0.61 0.72,0.31l-0.72 -0.31zm-18.99 7.57l-0.11 1.28c0.21,-0.18 0.12,-1.04 0.11,-1.28zm-136.44 -13.89c-1.52,-0.62 0.55,3.17 0.74,0.49 0.03,-0.36 -0.26,-0.27 -0.74,-0.49zm159.1 -12.77c-0.57,-0.96 -0.27,-0.8 -1.21,-1.08 -0.12,0.22 -0.76,1.6 -1.01,1.34 -0.03,0.05 -0.18,0.65 -0.18,0.66l2.52 -0.71 -0.12 -0.21zm1.66 -0.02c0.47,-0.54 0.47,-0.66 0.44,-1.39 -1.6,0.41 -1.73,0.84 -1.92,2.43 1.28,-0.34 0.35,0.26 1.48,-1.04zm-22.08 23.22l-0.19 -5.39 0.09 5.4 0.1 -0.01zm52.36 21.29c-1.3,1.53 -0.93,2.71 -0.16,4.43 2.76,0.13 0.59,-4.67 0.58,-4.69l-0.42 0.26zm-4.1 58.67l0 0zm8.7 -9.05l0 0zm86.87 4.04c-0.91,0.25 0.52,-0.06 -0.36,0.71 0.37,-0.15 0.94,-0.17 0.67,-0.73l-0.31 0.02zm-248.06 -0.84c-0.18,1.22 1.35,1.28 0.1,-0.04l-0.1 0.04zm31.51 -32.27c-0.61,0.33 -0.62,0.42 0.08,0.77 0.18,-0.36 0.28,-0.48 -0.02,-0.79l-0.06 0.02zm112.4 24.05c-0.12,0.49 -0.18,0.45 0.17,0.8 0.39,-0.39 0.81,0.03 -0.03,-1.01 -0.09,0.1 -0.13,0.06 -0.14,0.21zm-27.63 11.37c-0.65,-1.28 -0.51,1.57 0.03,0.59 0.12,-0.22 0.05,-0.37 -0.03,-0.59zm-58.4 -5.3l-0.33 0.44c1.01,-0.29 0.39,-0.51 0.33,-0.44zm77.03 5.73c-0.65,-1.82 -2.32,1.15 0,0.09l0 -0.09zm53.5 2.42c0.16,0.22 0.66,0.1 1,0.12l-1 -0.12zm58.69 -8.59c-0.82,0.29 -0.76,0.16 -0.29,1 0.69,-0.13 1.17,0.57 0.55,-1l-0.26 0zm-112.74 -4.19c0.35,-1.53 -1.48,-0.86 -0.42,0.75 0.26,-0.31 0.28,-0.29 0.42,-0.75zm-74.05 4.36c-0.09,-0.88 -0.98,-0.18 -1.35,0.09 0.03,0.06 0.38,1.24 1.35,-0.09zm182.44 -7.65c-0.87,0.61 -0.46,0.62 0.41,0.98l-0.41 -0.98zm-245.75 10.23c-0.78,-1.05 -0.66,-0.08 -0.98,0.7 0.83,0.42 1.39,0.29 0.98,-0.7zm138.14 7.17c-0.15,0.02 -2.2,1.59 -0.36,1.97 0.46,-0.57 0.61,-1.19 0.36,-1.97zm108.77 -20.02c-2.1,3.41 2.66,0.13 0.23,-0.21l-0.23 0.21zm-177.33 14.3c0.02,-1.49 -1.84,-1.6 -1.84,0.16l1.84 -0.16zm-112.49 1.64c-0.6,-0.71 -0.77,-0.63 -1.73,-0.62 -0.91,2.81 2.22,1.6 1.73,0.62zm47.04 0.64c0.11,-4.37 -4.17,1.99 -0.07,0.26l0.07 -0.26zm223.93 -1.57c-4.77,-2.23 1.24,4.93 0.11,0.16l-0.11 -0.16zm-45.12 0.21c-1.92,-0.13 -2.37,1.59 -0.79,2.12 1.54,0.41 2.07,-1.58 0.79,-2.12zm-228.57 -1.71c2.37,-1.06 -0.04,-2.19 -0.93,-1.97 -1.86,0.47 -0.36,1.38 -0.24,2.01l1.17 -0.04zm158.06 3.19c-0.48,0.46 -0.27,0.8 -0.19,1.46 4.51,0.92 2.43,-3.03 0.19,-1.46zm-78.89 -16.85c-2.76,1.24 -1.1,4.02 1.03,4.64 1.72,0.5 -0.38,-4.68 -0.44,-4.73l-0.59 0.09z"/>
  <path fill="#777777" fill-rule="nonzero" d="M0 206.92c10.89,-0.34 25.27,-0.76 32.65,-0.77l1.09 0c2.14,-0.01 4.11,-0.02 5.94,-0.03 10.21,-0.07 29.53,-0.72 38.59,-0.47 3.09,0.09 6.91,0.19 11.54,0.19 5.53,0 9.97,-0.25 13.42,-0.43 6.33,-0.35 35.37,-0.14 41.4,-0.22 7.43,-0.1 36.35,-0.52 36.79,-0.45 1.87,0.3 4.11,0.65 6.67,0.46 1.27,-0.09 2.19,-0.18 3.08,-0.27 2,-0.21 3.91,-0.4 6.42,-0.41 2.61,0 4.98,-0.02 7.09,-0.04 10.66,-0.07 21.09,1.03 32.21,1.25 1.97,0.04 4.3,0.09 7.01,0.04 2.67,-0.05 5.98,-0.23 9.44,-0.42 13.57,-0.74 24.13,-0.34 37.21,-1.08 6.89,-0.4 40.02,-0.36 50.94,-0.19l0.02 0c1.68,0.02 3.32,0.05 4.81,0.03 1.24,-0.02 2.69,-0.11 4.08,-0.19 1.23,-0.08 15.43,-0.13 29.6,-0.16l0 38.04 -380 0 0 -34.88z"/>
  <path fill="#CCCCCC" fill-rule="nonzero" d="M338.41 241.8c0.01,-0.94 -0.02,-2.03 -0.05,-3.32 -0.16,-9.05 -0.29,-9.36 -9.25,-9.35 -19.2,0.01 -16.38,4.84 -13.56,12.67l22.86 0zm-55.76 -33.34l0.32 17.56 37.92 -0.79 0.86 -16.67c-6.56,-2.58 -30.7,-0.3 -39.1,-0.1zm-190.26 33.34l0.94 -10.75c-14.41,1.27 -29.01,-1.12 -44.49,-1.09 -4.75,0.01 -5.98,-0.13 -5.85,4.56 0.05,1.78 0.14,4.63 0.35,7.28l49.05 0zm26.05 -15.82c6.9,1.14 43.09,1.86 49.66,0.3 0.54,-6.16 -0.22,-6.57 -2.75,-12.73 -1.36,-3.33 0.48,-1.59 -2.03,-3.34 -3.35,-2.34 -40.58,-0.97 -43.02,0.59 -5.22,3.32 0.25,2.95 -1.42,10.24 -0.72,3.18 -1.01,1.2 -0.44,4.94zm191.92 15.82l1.16 -11.31c-10.23,-1.04 -18.11,-1.26 -28.76,-1.2 -10.11,0.06 -21.09,-2.66 -22.35,7.11 -0.05,0.34 -0.12,3.31 -0.14,5.4l50.09 0zm-53.61 0c0.84,-4.38 -0.36,-10.06 -4.62,-11.5 -4.68,-1.58 -17.26,0.54 -23.27,0.21 -17.28,-0.94 -24.4,-5.19 -22.55,11.29l50.44 0zm-244.51 -16.5c0.2,0.14 0.51,0.12 0.61,0.42 0.76,2.28 37.95,1.6 41.46,1.55 7.3,-0.1 7.61,0.04 7.6,-7.12 -0.01,-11.17 2.01,-10.33 -28.16,-10.21 -3.17,0.01 -17.12,-0.04 -19.09,0.77 -3.94,1.6 -4.16,11.19 -2.42,14.59zm190.55 16.5c0.35,-3.78 -0.21,-8.05 -0.71,-11 -3.93,-0.7 -46.66,-2.14 -48.87,-0.04 -1.77,1.67 -1.61,6.88 -1.08,11.04l50.66 0zm23.81 -15.2c11.57,0.38 39.5,-0.04 50.11,-1.73l0.16 -15.65c-9,-1.43 -23.23,0.16 -32.91,0.35 -17.78,0.34 -18.47,-3.47 -17.36,17.03zm-226.6 2.28c3.08,-0.31 5.92,-1.09 8.4,-2.77 0.79,-10.68 -1.26,-14.08 -8.4,-14.93l0 17.7zm326.68 -19.93c-1.34,3.01 -0.96,3.83 -0.83,7.99 0.43,13.42 2.44,8.06 37.76,8.03l13.04 -0.27 0.04 -16.31c-6.36,-1.13 -9.61,0.43 -13.08,2.14 -4.41,-4.31 -10.27,-2.73 -17.25,-2.63 -6.25,0.09 -14.35,-0.6 -19.68,1.05zm-153.08 13.4c3.71,5.5 16.47,4.43 22.92,4.1 5.64,-0.29 21.84,0.19 25.74,-0.91 0.64,-3.27 0.62,-6.37 0.5,-9.82 -0.28,-8.4 1.28,-7.48 -25.17,-7.4 -3.47,0.01 -5.95,0.44 -9.24,0.68 -8.87,0.65 -13.65,-4.24 -15.23,3.83 -0.68,3.45 -0.73,6.86 0.48,9.52zm-26.62 19.45l-0.01 -1.17c0.05,-12.87 4.27,-10.45 -40.99,-10.5 -7.25,0 -8.46,-2.8 -8.63,4.97 -0.06,2.78 -0.13,4.97 0,6.7l49.63 0zm-107.92 0l-0.11 -9.37c-6.16,-2.26 -28.18,-2.1 -38.95,-2.05l0 11.42 39.06 0zm26.6 -15.87c8.05,2 39.61,1.5 49.24,1.02 0.15,-23.09 3,-17.33 -25.09,-17.31 -22.07,0.01 -24.28,-2.36 -25.07,6.06 -0.34,3.68 -0.51,7.12 0.92,10.23zm276.15 2.48c-0.25,2.44 -0.41,5.17 -0.46,7.95 -0.04,2.3 0,4.07 0.32,5.44l38.33 0 0 -13.81c-15.02,-1.4 -36.33,-0.58 -38.19,0.42z"/>
 </g>
</svg>
